<?xml version="1.0" encoding="iso-8859-1"?>
<!-- Generator: Adobe Illustrator 19.1.0, SVG Export Plug-In . SVG Version: 6.00 Build 0)  -->
<svg version="1.1" id="Capa_1" xmlns="http://www.w3.org/2000/svg" xmlns:xlink="http://www.w3.org/1999/xlink" x="0px" y="0px"
	 viewBox="0 0 478.728 478.728" style="enable-background:new 0 0 478.728 478.728;" xml:space="preserve">
<g>
	<g>
		<path d="M455.378,142.74l-57.096-13.176c-2.196,0-4.392,0-6.588,0l-57.096,26.352l43.92-43.92
			c2.196-2.196,2.196-4.392,4.392-6.588v-87.84c-2.196-6.588-6.588-6.588-13.176-6.588l0,0c-6.588,0-10.98,0-10.98,6.588V98.82
			l-63.684,63.684c4.392-10.98,6.588-21.96,6.588-35.136c0-21.96-6.588-39.528-17.568-54.9c2.196,0,2.196-2.196,4.392-2.196
			c13.176-10.98,19.764-30.744,19.764-59.292c0-6.588-4.392-10.98-10.98-10.98c-4.392,0-10.98,4.392-10.98,10.98
			c0,28.548-6.588,37.332-10.98,41.724c-6.588,4.392-10.98,2.196-10.98,2.196l0,0c-8.784-4.392-17.568-8.784-28.548-8.784
			c-8.784,0-17.568,2.196-26.352,6.588h-2.196c0,0-4.392,2.196-8.784-2.196c-6.588-2.196-13.176-10.98-13.176-39.528
			c0-6.588-4.392-10.98-10.98-10.98c-6.588,0-10.98,6.588-10.98,10.98c0,28.548,6.588,48.312,19.764,57.096
			c2.196,0,2.196,2.196,4.392,2.196c-13.176,15.372-19.764,35.136-19.764,57.096c0,6.588,0,15.372,2.196,21.96l-48.312-48.312
			V17.568c0-6.588-4.392-6.588-10.98-6.588l0,0c-6.588,0-10.98,0-10.98,6.588v85.644c0,2.196,2.196,6.588,4.392,8.784l46.116,43.92
			l-59.292-26.352c-2.196,0-4.392-2.196-6.588,0L24.962,142.74c-4.392,0-8.784,6.588-8.784,10.98
			c2.196,6.588,8.784,10.98,13.176,8.784l52.704-13.176l81.252,37.332H86.45c-2.196,0-4.392,0-6.588,2.196l-54.9,43.92
			c-4.392,4.392-4.392,10.98-2.196,15.372c2.196,2.196,4.392,4.392,8.784,4.392c2.196,0,4.392,0,6.588-2.196l52.704-41.724h74.664
			l-83.448,48.312c-4.392,0-6.588,4.392-6.588,8.784V428.22c0,6.588,4.392,10.98,10.98,10.98c6.588,0,10.98-4.392,10.98-10.98
			V272.304l39.528-21.96c-13.176,24.156-21.96,52.704-21.96,83.448c0,81.252,52.704,144.936,118.584,144.936
			s118.584-65.88,118.584-144.936c0-32.94-8.784-63.684-24.156-87.84l54.9,28.548v153.72c0,6.588,4.392,10.98,10.98,10.98
			s10.98-4.392,10.98-10.98V265.716c0-4.392-2.196-8.784-6.588-8.784L306.05,208.62h83.448l52.704,41.724
			c2.196,2.196,4.392,2.196,6.588,2.196s6.588-2.196,8.784-4.392c4.392-4.392,2.196-10.98-2.196-15.372l-54.9-43.92
			c-2.196-2.196-4.392-2.196-6.588-2.196h-76.86l79.056-35.136l52.704,10.98c6.588,2.196,10.98-2.196,13.176-8.784
			C464.162,149.328,459.77,142.74,455.378,142.74z M279.698,127.368c0,32.94-19.764,59.292-43.92,59.292s-43.92-26.352-43.92-59.292
			s19.764-59.292,43.92-59.292C259.934,68.076,279.698,94.428,279.698,127.368z M233.582,454.572
			c-52.704,0-96.624-54.9-96.624-122.976s43.92-122.976,96.624-122.976s96.624,54.9,96.624,122.976S288.482,454.572,233.582,454.572
			z"/>
		<path d="M185.27,296.46c-6.588,0-10.98,4.392-10.98,10.98s4.392,10.98,10.98,10.98h109.8c6.588,0,10.98-4.392,10.98-10.98
			s-4.392-10.98-10.98-10.98H185.27z"/>
		<path d="M273.11,340.38h-65.88c-6.588,0-10.98,4.392-10.98,10.98s4.392,10.98,10.98,10.98h65.88c6.588,0,10.98-4.392,10.98-10.98
			S279.698,340.38,273.11,340.38z"/>
	</g>
</g>
<g>
</g>
<g>
</g>
<g>
</g>
<g>
</g>
<g>
</g>
<g>
</g>
<g>
</g>
<g>
</g>
<g>
</g>
<g>
</g>
<g>
</g>
<g>
</g>
<g>
</g>
<g>
</g>
<g>
</g>
</svg>
