<?xml version="1.0" encoding="iso-8859-1"?>
<!-- Generator: Adobe Illustrator 19.0.0, SVG Export Plug-In . SVG Version: 6.00 Build 0)  -->
<svg version="1.1" id="Layer_1" xmlns="http://www.w3.org/2000/svg" xmlns:xlink="http://www.w3.org/1999/xlink" x="0px" y="0px"
	 viewBox="0 0 511.999 511.999" style="enable-background:new 0 0 511.999 511.999;" xml:space="preserve">
<g>
	<g>
		<circle cx="96.83" cy="220.678" r="17.822"/>
	</g>
</g>
<g>
	<g>
		<path d="M437.768,136.752l-15.333-24.789c-10.657-17.276-28.31-28.86-48.398-31.784c-13.45-1.956-26.96,0.144-38.963,5.796
			L270.576,6.918C267.004,2.54,261.651,0,256.001,0c-5.65,0-11.001,2.54-14.572,6.918l-64.495,79.056
			c-12.002-5.65-25.502-7.75-38.952-5.796c-20.087,2.922-37.719,14.507-48.377,31.784l-15.292,24.789
			C37.278,146.698,9.76,180.549,9.76,220.682c0,34.071,19.331,63.61,48.165,77.846v80.726c0,5.122,2.258,10.023,5.954,13.569
			l119.373,114.198c3.501,3.36,8.25,4.978,13.103,4.978h119.291c4.853,0,9.518-1.618,13.019-4.978l119.457-114.326
			c3.696-3.547,5.954-8.318,5.954-13.44v-80.726c28.832-14.238,48.164-43.776,48.164-77.846
			C502.239,180.55,474.804,146.7,437.768,136.752z M255.999,48.552l52.9,64.843l-52.9,107.004l-52.9-107.004L255.999,48.552z
			 M47.536,220.682c0-27.183,22.115-49.298,49.298-49.298c27.184,0,49.298,22.115,49.298,49.298
			c0,27.183-22.115,49.298-49.298,49.298S47.536,247.865,47.536,220.682z M308.082,474.391H203.915l-91.873-87.891
			c94.469-21.126,193.237-21.173,287.666,0.108L308.082,474.391z M416.466,352.184h-0.001
			c-105.306-24.996-215.626-25.102-320.932-0.307v-44.312c1.254,0.004,0.81,0.025,1.133,0.025c47.922,0,86.991-38.987,86.991-86.907
			c0-40.396-27.664-74.441-65.07-84.138l3.006-4.839c4.798-7.779,12.748-12.994,21.792-14.31c7.966-1.162,15.988,0.829,22.445,5.487
			l60.766,122.913c5.569,11.264,16.835,18.262,29.4,18.262c12.565,0,23.83-6.998,29.399-18.262l60.765-122.914
			c6.455-4.657,14.467-6.646,22.44-5.487c9.045,1.316,16.984,6.531,21.782,14.31l2.985,4.839
			c-37.406,9.696-65.111,43.741-65.111,84.138c0,47.92,39.154,86.907,87.075,86.907c0.323,0-0.12-0.021,1.133-0.025V352.184z
			 M415.163,269.98c-27.184,0-49.298-22.115-49.298-49.298c0-27.184,22.115-49.298,49.298-49.298s49.298,22.115,49.298,49.298
			C464.461,247.866,442.347,269.98,415.163,269.98z"/>
	</g>
</g>
<g>
	<g>
		<circle cx="415.167" cy="220.678" r="17.822"/>
	</g>
</g>
<g>
</g>
<g>
</g>
<g>
</g>
<g>
</g>
<g>
</g>
<g>
</g>
<g>
</g>
<g>
</g>
<g>
</g>
<g>
</g>
<g>
</g>
<g>
</g>
<g>
</g>
<g>
</g>
<g>
</g>
</svg>
